<svg width="20" height="20" viewBox="0 0 20 20" fill="none" xmlns="http://www.w3.org/2000/svg">
<path fill-rule="evenodd" clip-rule="evenodd" d="M4.13806 8.50991C4.13806 6.14302 6.0568 4.22428 8.42369 4.22428C10.7906 4.22428 12.7093 6.14302 12.7093 8.50991C12.7093 10.8768 10.7906 12.7955 8.42369 12.7955C6.0568 12.7955 4.13806 10.8768 4.13806 8.50991ZM8.42369 2.97428C5.36645 2.97428 2.88806 5.45267 2.88806 8.50991C2.88806 11.5672 5.36645 14.0455 8.42369 14.0455C9.72713 14.0455 10.9254 13.595 11.8711 12.8413L15.6982 16.6683C15.9423 16.9124 16.338 16.9124 16.5821 16.6683C16.8262 16.4242 16.8262 16.0285 16.5821 15.7844L12.755 11.9574C13.5088 11.0116 13.9593 9.81335 13.9593 8.50991C13.9593 5.45267 11.4809 2.97428 8.42369 2.97428Z" fill="#282828"/>
</svg>
